# xmcd CD database file
#
# Track frame offsets:
#	150
#	22147
#	39960
#	60979
#	82457
#	102835
#	118703
#	136349
#	155765
#	177888
#	193606
#	212963
#
# Disc length: 2870 seconds
#
# Revision: 3
# Processed by: cddbd v1.5.1PL2 Copyright (c) Steve Scherf et al.
# Submitted via: CDex 1.51
#
DISCID=aa0b340c
DTITLE=安倍なつみ - 2nd〜染みわたる想い〜
DYEAR=2006
DGENRE=JPop
TTITLE0=学生時代
TTITLE1=恋の花
TTITLE2=F.O.
TTITLE3=夕暮れ作戦会議
TTITLE4=夢ならば
TTITLE5=日曜日 What's Going On?
TTITLE6=東京みちくさ
TTITLE7=だって　生きてかなくちゃ
TTITLE8=エレベーター二人ぽっち
TTITLE9=恋のテレフォンGOAL
TTITLE10=ちょっとずつね。
TTITLE11=エンディング
EXTD=YEAR: 2006
EXTT0=
EXTT1=
EXTT2=
EXTT3=
EXTT4=
EXTT5=
EXTT6=
EXTT7=
EXTT8=
EXTT9=
EXTT10=
EXTT11=
PLAYORDER=
